<?xml version="1.0" encoding="utf-8"?>
<!-- Generator: Adobe Illustrator 25.4.1, SVG Export Plug-In . SVG Version: 6.00 Build 0)  -->
<svg version="1.1" xmlns="http://www.w3.org/2000/svg" xmlns:xlink="http://www.w3.org/1999/xlink" x="0px" y="0px"
	 viewBox="0 0 3710 3710" style="enable-background:new 0 0 3710 3710;" xml:space="preserve">
<style type="text/css">
	.st0{fill:#FFFFFF;}
	.st1{fill:url(#SVGID_1_);}
	.st2{fill:#BDD0FB;}
	.st3{opacity:0.51;fill:#FFFFFF;}
	.st4{fill:url(#SVGID_00000052102449060262844940000014086138396078081195_);}
	.st5{fill:url(#SVGID_00000127745353819663016740000001461209896239588031_);}
	.st6{fill:#91B3FA;}
	.st7{opacity:0.65;fill:#FFFFFF;}
	.st8{fill:#7D97F4;}
	.st9{fill:url(#SVGID_00000157283735642612982240000000193142923575687343_);}
	.st10{fill:url(#SVGID_00000137811165423409529760000003393522542801656196_);}
	.st11{fill:url(#SVGID_00000115491835720749092780000011767555600734403205_);}
	.st12{fill:url(#SVGID_00000065772384694707794360000011850068950025078414_);}
	.st13{fill:url(#SVGID_00000101815025993747792360000015601871772876708006_);}
	.st14{fill:url(#SVGID_00000072272288178912600920000012333984371906268849_);}
	.st15{fill:url(#SVGID_00000147187783221102829050000015543783573665239449_);}
	.st16{fill:url(#SVGID_00000034778930324349611710000007953432260592706231_);}
	.st17{fill:url(#SVGID_00000008124912573165131790000004123401528488942263_);}
	.st18{fill:url(#SVGID_00000093142187058134528920000009176966276589675411_);}
	.st19{fill:url(#SVGID_00000142160126942145452680000001088934202303324856_);}
	.st20{fill:url(#SVGID_00000181793395111183398730000008910490615379060394_);}
	.st21{fill:url(#SVGID_00000160166047369242878160000002826694421072236729_);}
	.st22{fill:url(#SVGID_00000181059918847858046560000001036157705481671069_);}
	.st23{fill:url(#SVGID_00000099662908375290939760000006611913431018027706_);}
	.st24{fill:url(#SVGID_00000113347161133357031450000009488016743344996778_);}
	.st25{fill:url(#SVGID_00000098203088312428340190000015839196573094950841_);}
	.st26{fill:url(#SVGID_00000026165422375875030670000011047234998466978734_);}
	.st27{fill:url(#SVGID_00000181783546942209782950000017767277344310725799_);}
	.st28{fill:url(#SVGID_00000088121075921958917360000005956790723972510101_);}
	.st29{fill:url(#SVGID_00000093160953424741908980000007146921725151922579_);}
	.st30{fill:url(#SVGID_00000150805270307745931530000009335452805553374109_);}
	.st31{fill:url(#SVGID_00000163042921358562278770000014623826112148712369_);}
	.st32{fill:url(#SVGID_00000127754638030116276890000000003272370631260327_);}
	.st33{fill:url(#SVGID_00000092430587677899090980000000761361850603711378_);}
	.st34{fill:url(#SVGID_00000124852191340032455980000010160290816640890240_);}
	.st35{fill:url(#SVGID_00000129194146526361520590000001009041646675851451_);}
	.st36{fill:url(#SVGID_00000044168747446070862850000005973780231689491130_);}
	.st37{fill:url(#SVGID_00000171677530179117182060000012350719892047927206_);}
	.st38{fill:url(#SVGID_00000044890567270075372900000004147503456115834777_);}
	.st39{fill:url(#SVGID_00000047738806513891446120000015996301059660305812_);}
	.st40{opacity:0.7;fill:#FFFFFF;}
	.st41{fill:url(#SVGID_00000002378293066909722400000001532548143067504788_);}
	.st42{fill:url(#SVGID_00000078733756127084120700000016273338850395946939_);}
	.st43{fill:url(#SVGID_00000103985749147893601540000017635165473195493019_);}
	.st44{fill:url(#SVGID_00000005964108074179540160000000969106194413172099_);}
	.st45{fill:url(#SVGID_00000093159755753044675670000008014747067738902672_);}
	.st46{fill:url(#SVGID_00000125598831402570805830000011752335702313223077_);}
	.st47{fill:url(#SVGID_00000155856338534350130780000018376268373361305258_);}
	.st48{fill:url(#SVGID_00000091736794014548357340000012909725742915050402_);}
	.st49{fill:url(#SVGID_00000086685778627391295530000008739081256796795808_);}
	.st50{fill:url(#SVGID_00000127046202864787415090000008280832534449094037_);}
	.st51{fill:url(#SVGID_00000088848636716252630050000001878433352437969076_);}
	.st52{fill:url(#SVGID_00000134947750665141396630000000148725060989401997_);}
	.st53{fill:url(#SVGID_00000064320388572406878240000003393123259894247082_);}
	.st54{fill:url(#SVGID_00000016075474377282933430000013364320728545373319_);}
	.st55{fill:url(#SVGID_00000178172995429955492670000004976904183714064543_);}
	.st56{fill:url(#SVGID_00000150804808867818158690000013992438821554383003_);}
	.st57{fill:url(#SVGID_00000156566348506514132260000003261609296900795777_);}
	.st58{fill:url(#SVGID_00000178180737463475078470000007486873938269100428_);}
	.st59{fill:url(#SVGID_00000037653333244006481510000010646411964575095460_);}
	.st60{fill:url(#SVGID_00000083769652273312878810000001115984364045408694_);}
	.st61{fill:url(#SVGID_00000180353201927305014220000008210471332789846962_);}
	.st62{fill:url(#SVGID_00000168091792568123093450000001344751197759704213_);}
	.st63{fill:url(#SVGID_00000109721605972354892820000013308041610052682645_);}
	.st64{fill:url(#SVGID_00000109752344659234601550000014971342575988132282_);}
	.st65{fill:url(#SVGID_00000077302011899627914250000008352112952313846402_);}
	.st66{fill:url(#SVGID_00000124137413478781700520000010928660717326169749_);}
	.st67{fill:url(#SVGID_00000081610695199827384420000009375952548211969445_);}
	.st68{fill:url(#SVGID_00000078756375200342899460000015715095260695912581_);}
	.st69{fill:url(#SVGID_00000036211054793357854120000013733580814016675989_);}
	.st70{fill:url(#SVGID_00000114765611573711987000000004442473745401951370_);}
</style>
<g id="Background">
	<g>
		<g>
			<rect class="st0" width="3710" height="3710"/>
		</g>
	</g>
</g>
<g id="Illustration">
	<g>
		<linearGradient id="SVGID_1_" gradientUnits="userSpaceOnUse" x1="3611.2551" y1="4065.2729" x2="1104.8005" y2="952.4136">
			<stop  offset="0" style="stop-color:#DAE3FE"/>
			<stop  offset="1" style="stop-color:#E9EFFD"/>
		</linearGradient>
		<path class="st1" d="M2929.45,2832.3c-58,60.32-112.87,99.21-156.23,129.95c-509.64,361.25-1112.69,255.94-1240.85,230.23
			c-189.26-37.97-555.09-111.38-819.58-418.64c-400.15-464.87-337.84-1197.26-27.46-1680.72
			c56.77-88.43,356.67-579.26,966.21-657.97c368.89-47.64,798.89,48.44,1110.29,306.17
			C3415.48,1282.31,3368.95,2375.22,2929.45,2832.3z"/>
		<g>
			<g>
				<path class="st2" d="M1596.8,3005.92c-17.83-321.26-136.97-614.32-559.95-822.81C1036.86,2183.11,971.21,2971.19,1596.8,3005.92
					z"/>
				<path class="st3" d="M1480.65,2866.46c-0.86,0-1.71-0.32-2.38-0.97c-239.24-233.5-388.72-576.05-390.2-579.49
					c-0.74-1.72,0.05-3.73,1.77-4.47c1.72-0.74,3.73,0.05,4.47,1.77c1.48,3.42,150.44,344.78,388.7,577.31
					c1.35,1.31,1.37,3.47,0.06,4.81C1482.42,2866.12,1481.54,2866.46,1480.65,2866.46z"/>
			</g>
			<g>
				<path class="st2" d="M2334.19,2985.87c288.89,26.66,566.04-40.78,808.03-390.4C3142.22,2595.47,2448.05,2432.51,2334.19,2985.87
					z"/>
				<path class="st3" d="M2498.1,2891.49c-0.78,0-1.56-0.27-2.2-0.81c-1.44-1.22-1.61-3.36-0.4-4.8
					c86.36-101.8,227.76-166.48,331.17-202.82c111.89-39.32,204.68-54.85,205.61-55c1.87-0.33,3.61,0.95,3.91,2.8
					c0.31,1.85-0.95,3.61-2.8,3.91c-3.68,0.61-369.2,62.78-532.7,255.51C2500.02,2891.08,2499.06,2891.49,2498.1,2891.49z"/>
			</g>
			
				<linearGradient id="SVGID_00000128477872166222112700000009585894817480151687_" gradientUnits="userSpaceOnUse" x1="2065.5413" y1="2407.1714" x2="2555.6404" y2="1358.9028">
				<stop  offset="0" style="stop-color:#09005D"/>
				<stop  offset="1" style="stop-color:#1A0F91"/>
			</linearGradient>
			<polygon style="fill:url(#SVGID_00000128477872166222112700000009585894817480151687_);" points="1630.3,2377.04 
				1569.56,2921.79 2274.27,2921.79 2182.48,2377.04 			"/>
			<g>
				
					<linearGradient id="SVGID_00000029031373154348583550000016986590791055527809_" gradientUnits="userSpaceOnUse" x1="1853.0118" y1="514.4775" x2="1853.0118" y2="1624.0087">
					<stop  offset="0" style="stop-color:#09005D"/>
					<stop  offset="1" style="stop-color:#1A0F91"/>
				</linearGradient>
				<path style="fill:url(#SVGID_00000029031373154348583550000016986590791055527809_);" d="M446.52,1034.87v1247.63
					c0,102.63,81.79,186.56,184.39,189.21c455.7,11.75,2049.5,40.24,2483.29,33.85c74.56-1.1,134.96-60.76,137.11-135.3
					c8.36-289.84,21.95-986.81-28.32-1310.39c-10.59-68.14-68.1-119.1-137.03-121.3c-381.82-12.21-2071.35-51-2504.94-41.26
					C506.23,898.99,446.52,960.08,446.52,1034.87z"/>
				<path class="st6" d="M524.81,1028.8v1185.34c0,59.92,48.1,108.75,108.02,109.65l2418.97,29.89
					c59.4,0.89,108.1-46.9,108.32-106.31l4.05-1174.75c0.16-42.48-33.68-77.29-76.15-78.32L611.43,944.26
					C563.93,943.1,524.81,981.29,524.81,1028.8z"/>
				<path class="st7" d="M3178.32,2402.3c-0.02,0-0.04,0-0.06,0l-2653.52-45.21c-1.88-0.03-3.38-1.58-3.35-3.46
					c0.04-1.88,1.74-3.38,3.46-3.35l2653.52,45.21c1.88,0.03,3.38,1.58,3.35,3.46C3181.69,2400.81,3180.18,2402.3,3178.32,2402.3z"
					/>
				<path class="st7" d="M1877.74,2457.52c-17.1,0-31.01-13.91-31.01-31.01c0-17.1,13.91-31.01,31.01-31.01
					c17.1,0,31.01,13.91,31.01,31.01C1908.75,2443.6,1894.84,2457.52,1877.74,2457.52z M1877.74,2402.3
					c-13.35,0-24.21,10.86-24.21,24.21c0,13.35,10.86,24.21,24.21,24.21c13.35,0,24.21-10.86,24.21-24.21
					C1901.95,2413.16,1891.09,2402.3,1877.74,2402.3z"/>
			</g>
			<g>
				<path class="st8" d="M2291.69,3000.99c309.88-153.83,548.93-395.81,575.6-902.15
					C2867.29,2098.84,2060.76,2368.11,2291.69,3000.99z"/>
				<path class="st3" d="M2341.81,2886.69c-0.37,0-0.75-0.06-1.13-0.19c-1.77-0.62-2.71-2.56-2.08-4.34
					c73.97-210.87,183.9-373.45,263.09-472.71c85.83-107.59,155.15-166.12,155.85-166.69c1.45-1.2,3.59-1.01,4.8,0.42
					c1.21,1.44,1.02,3.59-0.42,4.8c-2.74,2.3-275.97,234.73-416.89,636.44C2344.53,2885.81,2343.22,2886.69,2341.81,2886.69z"/>
			</g>
			<g>
				
					<linearGradient id="SVGID_00000134220497940493739000000011617853975160452271_" gradientUnits="userSpaceOnUse" x1="2162.0986" y1="4227.0806" x2="1991.9255" y2="3396.6338">
					<stop  offset="0" style="stop-color:#09005D"/>
					<stop  offset="1" style="stop-color:#1A0F91"/>
				</linearGradient>
				<path style="fill:url(#SVGID_00000134220497940493739000000011617853975160452271_);" d="M2426.06,3033.25H1394.68
					c-28.02,0-49.06-19.95-43.64-41.37l13.23-52.34c3.98-15.74,21.3-27.3,41.86-27.94l994.29-31.03
					c21.49-0.67,40.51,10.74,45.2,27.09l23.86,83.37C2475.67,3012.69,2454.53,3033.25,2426.06,3033.25z"/>
				<path class="st0" d="M1949.89,2925.82c-1.86,0-3.38-1.49-3.4-3.35c-0.03-1.88,1.48-3.43,3.35-3.45l42.61-0.62
					c0.02,0,0.03,0,0.05,0c1.86,0,3.38,1.49,3.4,3.35c0.03,1.88-1.48,3.43-3.35,3.45l-42.61,0.62
					C1949.92,2925.82,1949.91,2925.82,1949.89,2925.82z"/>
				<path class="st0" d="M1389.22,3004.43c-0.18,0-0.36-0.01-0.54-0.04c-1.86-0.3-3.12-2.04-2.83-3.9l6.08-38.07
					c3.27-20.48,20.69-35.56,41.42-35.87l451.91-6.61c0.02,0,0.03,0,0.05,0c1.86,0,3.38,1.49,3.4,3.35
					c0.03,1.88-1.48,3.43-3.35,3.45l-451.91,6.61c-17.42,0.26-32.05,12.93-34.8,30.13l-6.08,38.07
					C1392.31,3003.24,1390.86,3004.43,1389.22,3004.43z"/>
			</g>
		</g>
		<g>
			<g>
				
					<linearGradient id="SVGID_00000170242697955883300760000005497442840021566889_" gradientUnits="userSpaceOnUse" x1="889.0703" y1="-60.3512" x2="173.3246" y2="1723.3326" gradientTransform="matrix(0.9574 -0.2888 0.2888 0.9574 1906.0146 448.3311)">
					<stop  offset="0" style="stop-color:#4042E2"/>
					<stop  offset="1" style="stop-color:#4F52FF"/>
				</linearGradient>
				<path style="fill:url(#SVGID_00000170242697955883300760000005497442840021566889_);" d="M2681.8,523.65
					c15.42,0.73,30.98,2.14,46.25,4.19c2.09,0.28,4.14,0.1,6.04-0.48c5.22-1.57,9.3-6.07,10.07-11.82
					c1.06-7.85-4.45-15.07-12.3-16.12c-16.08-2.16-32.47-3.64-48.71-4.41c-7.91-0.37-14.63,5.73-15,13.64
					C2667.78,516.56,2673.89,523.28,2681.8,523.65z"/>
				
					<linearGradient id="SVGID_00000011729820597405367690000009474504164152244889_" gradientUnits="userSpaceOnUse" x1="484.2922" y1="-222.776" x2="-231.4353" y2="1560.8624" gradientTransform="matrix(0.9574 -0.2888 0.2888 0.9574 1906.0146 448.3311)">
					<stop  offset="0" style="stop-color:#4042E2"/>
					<stop  offset="1" style="stop-color:#4F52FF"/>
				</linearGradient>
				<path style="fill:url(#SVGID_00000011729820597405367690000009474504164152244889_);" d="M2280.13,653.71
					c-5.48-5.72-14.55-5.91-20.27-0.43c-11.72,11.23-23.1,23.11-33.82,35.29c-5.23,5.95-4.65,15,1.3,20.23
					c3.86,3.4,9.04,4.34,13.62,2.96c2.48-0.75,4.78-2.17,6.61-4.25c10.18-11.58,20.99-22.86,32.13-33.53
					C2285.42,668.5,2285.61,659.42,2280.13,653.71z"/>
				
					<linearGradient id="SVGID_00000104700667257326019980000008203807991983989389_" gradientUnits="userSpaceOnUse" x1="370.0713" y1="-268.62" x2="-345.6636" y2="1515.0369" gradientTransform="matrix(0.9574 -0.2888 0.2888 0.9574 1906.0146 448.3311)">
					<stop  offset="0" style="stop-color:#4042E2"/>
					<stop  offset="1" style="stop-color:#4F52FF"/>
				</linearGradient>
				<path style="fill:url(#SVGID_00000104700667257326019980000008203807991983989389_);" d="M2104.32,977.72
					c-7.84-1.06-15.07,4.43-16.14,12.27c-2.19,16.09-3.7,32.47-4.5,48.68c-0.39,7.91,5.71,14.63,13.61,15.03
					c1.69,0.08,3.32-0.13,4.85-0.59c5.64-1.7,9.87-6.8,10.18-13.03c0.76-15.4,2.2-30.95,4.27-46.23
					C2117.66,986.01,2112.16,978.79,2104.32,977.72z"/>
				
					<linearGradient id="SVGID_00000093892574998463904210000001242873465489137065_" gradientUnits="userSpaceOnUse" x1="422.4171" y1="-247.6075" x2="-293.3137" y2="1536.0396" gradientTransform="matrix(0.9574 -0.2888 0.2888 0.9574 1906.0146 448.3311)">
					<stop  offset="0" style="stop-color:#4042E2"/>
					<stop  offset="1" style="stop-color:#4F52FF"/>
				</linearGradient>
				<path style="fill:url(#SVGID_00000093892574998463904210000001242873465489137065_);" d="M2197.71,747.58
					c-6.61-4.36-15.51-2.54-19.86,4.08c-8.95,13.57-17.42,27.67-25.16,41.9c-3.79,6.95-1.22,15.66,5.74,19.45
					c3.5,1.91,7.45,2.2,10.99,1.14c3.48-1.05,6.57-3.42,8.45-6.87c7.36-13.52,15.41-26.92,23.92-39.82
					C2206.15,760.83,2204.32,751.94,2197.71,747.58z"/>
				
					<linearGradient id="SVGID_00000085957642890852408910000012228905605622921655_" gradientUnits="userSpaceOnUse" x1="773.9547" y1="-106.5317" x2="58.2361" y2="1677.0846" gradientTransform="matrix(0.9574 -0.2888 0.2888 0.9574 1906.0146 448.3311)">
					<stop  offset="0" style="stop-color:#4042E2"/>
					<stop  offset="1" style="stop-color:#4F52FF"/>
				</linearGradient>
				<path style="fill:url(#SVGID_00000085957642890852408910000012228905605622921655_);" d="M2560.35,531.6
					c15.2-2.72,30.69-4.82,46.04-6.24c0.98-0.09,1.92-0.28,2.83-0.56c6.39-1.93,10.76-8.14,10.12-15.04
					c-0.73-7.88-7.71-13.68-15.6-12.96c-16.15,1.5-32.45,3.71-48.44,6.57c-7.81,1.36-12.98,8.85-11.59,16.64
					C2545.11,527.8,2552.55,532.99,2560.35,531.6z"/>
				
					<linearGradient id="SVGID_00000114777320807465478310000016380748353379979187_" gradientUnits="userSpaceOnUse" x1="383.7213" y1="-263.1415" x2="-332.0118" y2="1520.5109" gradientTransform="matrix(0.9574 -0.2888 0.2888 0.9574 1906.0146 448.3311)">
					<stop  offset="0" style="stop-color:#4042E2"/>
					<stop  offset="1" style="stop-color:#4F52FF"/>
				</linearGradient>
				<path style="fill:url(#SVGID_00000114777320807465478310000016380748353379979187_);" d="M2138.1,857.39
					c-7.41-2.78-15.68,0.96-18.47,8.36c-5.72,15.19-10.86,30.82-15.27,46.45c-2.15,7.62,2.29,15.54,9.91,17.69
					c2.73,0.77,5.49,0.7,8.02-0.07c4.53-1.37,8.29-4.95,9.67-9.84c4.18-14.86,9.06-29.7,14.5-44.13
					C2149.25,868.45,2145.51,860.18,2138.1,857.39z"/>
				
					<linearGradient id="SVGID_00000070819639631767422560000003598101135911074485_" gradientUnits="userSpaceOnUse" x1="382.8836" y1="-263.4828" x2="-332.8524" y2="1520.1772" gradientTransform="matrix(0.9574 -0.2888 0.2888 0.9574 1906.0146 448.3311)">
					<stop  offset="0" style="stop-color:#4042E2"/>
					<stop  offset="1" style="stop-color:#4F52FF"/>
				</linearGradient>
				<path style="fill:url(#SVGID_00000070819639631767422560000003598101135911074485_);" d="M2098.3,1102.49
					c-7.91,0.74-13.7,7.69-12.99,15.58c1.46,16.12,3.64,32.42,6.47,48.43c1.38,7.8,8.82,13,16.62,11.62c0.56-0.1,1.12-0.23,1.66-0.4
					c6.86-2.07,11.24-8.99,9.96-16.22c-2.7-15.22-4.77-30.7-6.15-46.02C2113.16,1107.6,2106.19,1101.78,2098.3,1102.49z"/>
				
					<linearGradient id="SVGID_00000124162180077881218360000018051449216273973418_" gradientUnits="userSpaceOnUse" x1="566.3107" y1="-189.8611" x2="-149.4154" y2="1593.7738" gradientTransform="matrix(0.9574 -0.2888 0.2888 0.9574 1906.0146 448.3311)">
					<stop  offset="0" style="stop-color:#4042E2"/>
					<stop  offset="1" style="stop-color:#4F52FF"/>
				</linearGradient>
				<path style="fill:url(#SVGID_00000124162180077881218360000018051449216273973418_);" d="M2333.36,627.85
					c1.48-0.45,2.92-1.15,4.25-2.1c12.5-9.02,25.54-17.6,38.77-25.51c6.8-4.07,9.01-12.87,4.95-19.67
					c-4.07-6.8-12.85-8.97-19.67-4.94c-13.93,8.33-27.66,17.37-40.82,26.87c-6.42,4.63-7.87,13.59-3.24,20.02
					C2321.26,627.6,2327.66,629.56,2333.36,627.85z"/>
				
					<linearGradient id="SVGID_00000145773035977478393380000008850571251939898529_" gradientUnits="userSpaceOnUse" x1="664.5378" y1="-150.4414" x2="-51.1843" y2="1633.1837" gradientTransform="matrix(0.9574 -0.2888 0.2888 0.9574 1906.0146 448.3311)">
					<stop  offset="0" style="stop-color:#4042E2"/>
					<stop  offset="1" style="stop-color:#4F52FF"/>
				</linearGradient>
				<path style="fill:url(#SVGID_00000145773035977478393380000008850571251939898529_);" d="M2442.18,566.67
					c0.49-0.15,0.97-0.32,1.45-0.52c14.19-5.99,28.83-11.44,43.51-16.21c7.53-2.44,11.66-10.53,9.21-18.06
					c-2.41-7.43-10.32-11.55-17.77-9.3c-0.1,0.03-0.2,0.06-0.29,0.09c-15.46,5.01-30.87,10.76-45.8,17.06
					c-7.3,3.08-10.71,11.49-7.64,18.79C2427.72,565.33,2435.25,568.76,2442.18,566.67z"/>
				
					<linearGradient id="SVGID_00000011003096517122041220000002992934840228587397_" gradientUnits="userSpaceOnUse" x1="420.5941" y1="-248.352" x2="-295.1443" y2="1535.3138" gradientTransform="matrix(0.9574 -0.2888 0.2888 0.9574 1906.0146 448.3311)">
					<stop  offset="0" style="stop-color:#4042E2"/>
					<stop  offset="1" style="stop-color:#4F52FF"/>
				</linearGradient>
				<path style="fill:url(#SVGID_00000011003096517122041220000002992934840228587397_);" d="M2138.16,1234.54
					c-2.4-7.45-10.38-11.77-17.84-9.52c-0.09,0.03-0.18,0.05-0.27,0.08c-7.58,2.29-11.62,10.7-9.18,18.24
					c5,15.49,10.84,31.35,17.11,46.29c2.86,6.83,10.37,10.15,17.31,8.06c0.48-0.14,0.88-0.54,1.35-0.74
					c7.3-3.06,10.75-11.43,7.69-18.73C2148.37,1264.04,2142.9,1249.26,2138.16,1234.54z"/>
				
					<linearGradient id="SVGID_00000170266825739321341750000010726275732225557416_" gradientUnits="userSpaceOnUse" x1="993.3607" y1="-18.4982" x2="277.6168" y2="1765.1814" gradientTransform="matrix(0.9574 -0.2888 0.2888 0.9574 1906.0146 448.3311)">
					<stop  offset="0" style="stop-color:#4042E2"/>
					<stop  offset="1" style="stop-color:#4F52FF"/>
				</linearGradient>
				<path style="fill:url(#SVGID_00000170266825739321341750000010726275732225557416_);" d="M2841.75,540.45
					c2.45-7.52-1.67-15.62-9.2-18.07c-7.4-2.41-14.96-4.7-22.49-6.82c-7.62-2.16-15.54,2.3-17.68,9.92
					c-2.14,7.62,2.3,15.54,9.92,17.68c7.16,2.02,14.35,4.19,21.38,6.48c2.89,0.94,5.86,0.91,8.56,0.1
					C2836.59,548.44,2840.24,545.1,2841.75,540.45z"/>
			</g>
			
				<linearGradient id="SVGID_00000140694275310070688970000002664778529938816409_" gradientUnits="userSpaceOnUse" x1="861.5435" y1="-71.438" x2="145.7886" y2="1712.269" gradientTransform="matrix(0.9574 -0.2888 0.2888 0.9574 1906.0146 448.3311)">
				<stop  offset="0" style="stop-color:#4042E2"/>
				<stop  offset="1" style="stop-color:#4F52FF"/>
			</linearGradient>
			<path style="fill:url(#SVGID_00000140694275310070688970000002664778529938816409_);" d="M2602.57,1608.65
				c-15.11-1.48-30.33-3.63-45.24-6.38c-7.79-1.44-15.26,3.71-16.7,11.5c-1.44,7.79,3.71,15.26,11.5,16.7
				c15.71,2.9,31.74,5.16,47.64,6.72c1.92,0.19,3.79-0.01,5.54-0.53c5.4-1.63,9.55-6.38,10.13-12.33
				C2616.21,1616.44,2610.45,1609.42,2602.57,1608.65z"/>
			<g>
				
					<linearGradient id="SVGID_00000178186257658909236800000004156359208529535159_" gradientUnits="userSpaceOnUse" x1="1366.2794" y1="153.4469" x2="650.5422" y2="1937.1096" gradientTransform="matrix(0.9574 -0.2888 0.2888 0.9574 1906.0146 448.3311)">
					<stop  offset="0" style="stop-color:#4042E2"/>
					<stop  offset="1" style="stop-color:#4F52FF"/>
				</linearGradient>
				<path style="fill:url(#SVGID_00000178186257658909236800000004156359208529535159_);" d="M3194.1,854.28
					c3.12,6.42,10.4,9.47,17.02,7.47c0.72-0.22,1.44-0.49,2.14-0.83c7.12-3.46,10.1-12.03,6.64-19.16c-3.4-7-7-14.05-10.71-20.95
					c-3.75-6.97-12.41-9.61-19.42-5.84c-6.97,3.75-9.59,12.44-5.84,19.42C3187.46,840.93,3190.88,847.63,3194.1,854.28z"/>
				
					<linearGradient id="SVGID_00000146484290385521583630000012856719603244537790_" gradientUnits="userSpaceOnUse" x1="1440.3221" y1="183.159" x2="724.5862" y2="1966.8188" gradientTransform="matrix(0.9574 -0.2888 0.2888 0.9574 1906.0146 448.3311)">
					<stop  offset="0" style="stop-color:#4042E2"/>
					<stop  offset="1" style="stop-color:#4F52FF"/>
				</linearGradient>
				<path style="fill:url(#SVGID_00000146484290385521583630000012856719603244537790_);" d="M3259.25,1024.7
					c-7.86,0.77-13.65,7.77-12.88,15.66c1.47,15.12,2.31,30.46,2.5,45.61c0.1,7.91,6.6,14.25,14.51,14.15
					c1.38-0.02,2.71-0.23,3.97-0.6c5.96-1.8,10.27-7.37,10.19-13.91c-0.2-15.95-1.08-32.1-2.63-48.02
					C3274.15,1029.7,3267.14,1023.93,3259.25,1024.7z"/>
				
					<linearGradient id="SVGID_00000174595772502703060960000008223703618033416891_" gradientUnits="userSpaceOnUse" x1="1444.0088" y1="184.6418" x2="728.2762" y2="1968.2932" gradientTransform="matrix(0.9574 -0.2888 0.2888 0.9574 1906.0146 448.3311)">
					<stop  offset="0" style="stop-color:#4042E2"/>
					<stop  offset="1" style="stop-color:#4F52FF"/>
				</linearGradient>
				<path style="fill:url(#SVGID_00000174595772502703060960000008223703618033416891_);" d="M3260.71,1147.67
					c-7.84-0.99-15.02,4.58-16.01,12.44c-1.89,15.04-4.45,30.2-7.62,45.06c-1.65,7.74,3.29,15.36,11.04,17
					c2.45,0.52,4.88,0.38,7.11-0.29c4.84-1.46,8.77-5.45,9.9-10.75c3.33-15.64,6.03-31.6,8.02-47.45
					C3274.14,1155.82,3268.57,1148.65,3260.71,1147.67z"/>
				
					<linearGradient id="SVGID_00000047018722413312262690000009539888903901041029_" gradientUnits="userSpaceOnUse" x1="1377.1676" y1="157.8266" x2="661.4382" y2="1941.47" gradientTransform="matrix(0.9574 -0.2888 0.2888 0.9574 1906.0146 448.3311)">
					<stop  offset="0" style="stop-color:#4042E2"/>
					<stop  offset="1" style="stop-color:#4F52FF"/>
				</linearGradient>
				<path style="fill:url(#SVGID_00000047018722413312262690000009539888903901041029_);" d="M3163.92,1384.05
					c-8.13,12.8-16.92,25.42-26.1,37.51c-4.79,6.31-3.56,15.3,2.75,20.09c3.8,2.88,8.58,3.58,12.82,2.3
					c2.8-0.84,5.36-2.55,7.26-5.05c9.67-12.73,18.91-26.01,27.47-39.48c4.25-6.69,2.27-15.54-4.41-19.79
					C3177.02,1375.39,3168.16,1377.36,3163.92,1384.05z"/>
				
					<linearGradient id="SVGID_00000122701461605790750890000016030898912960652981_" gradientUnits="userSpaceOnUse" x1="1224.5913" y1="96.6116" x2="508.8665" y2="1880.2433" gradientTransform="matrix(0.9574 -0.2888 0.2888 0.9574 1906.0146 448.3311)">
					<stop  offset="0" style="stop-color:#4042E2"/>
					<stop  offset="1" style="stop-color:#4F52FF"/>
				</linearGradient>
				<path style="fill:url(#SVGID_00000122701461605790750890000016030898912960652981_);" d="M2995.59,1552.18
					c-12.84,8.12-26.17,15.77-39.61,22.75c-7.03,3.65-9.77,12.31-6.12,19.34c3.23,6.21,10.38,9.07,16.85,7.12
					c0.84-0.25,1.67-0.59,2.48-1.01c14.15-7.35,28.19-15.41,41.71-23.96c6.69-4.23,8.69-13.09,4.46-19.78
					C3011.14,1549.95,3002.29,1547.96,2995.59,1552.18z"/>
				
					<linearGradient id="SVGID_00000091004415673902606860000001499778376261852316_" gradientUnits="userSpaceOnUse" x1="1310.1339" y1="130.9293" x2="594.4072" y2="1914.566" gradientTransform="matrix(0.9574 -0.2888 0.2888 0.9574 1906.0146 448.3311)">
					<stop  offset="0" style="stop-color:#4042E2"/>
					<stop  offset="1" style="stop-color:#4F52FF"/>
				</linearGradient>
				<path style="fill:url(#SVGID_00000091004415673902606860000001499778376261852316_);" d="M3089.03,1477.46
					c-10.75,10.74-22.07,21.14-33.64,30.9c-6.05,5.11-6.82,14.15-1.71,20.21c3.8,4.51,9.79,6.08,15.1,4.48
					c1.82-0.55,3.56-1.47,5.1-2.77c12.18-10.28,24.1-21.23,35.41-32.54c5.6-5.6,5.6-14.67,0.01-20.27
					C3103.71,1471.86,3094.63,1471.86,3089.03,1477.46z"/>
				
					<linearGradient id="SVGID_00000170271388165057602720000009822290790888966815_" gradientUnits="userSpaceOnUse" x1="1422.547" y1="176.0332" x2="706.8137" y2="1959.6863" gradientTransform="matrix(0.9574 -0.2888 0.2888 0.9574 1906.0146 448.3311)">
					<stop  offset="0" style="stop-color:#4042E2"/>
					<stop  offset="1" style="stop-color:#4F52FF"/>
				</linearGradient>
				<path style="fill:url(#SVGID_00000170271388165057602720000009822290790888966815_);" d="M3235.06,1267.93
					c-7.46-2.69-15.67,1.17-18.36,8.61c-5.15,14.26-10.97,28.49-17.31,42.3c-3.3,7.2-0.14,15.71,7.05,19.01
					c3.3,1.52,6.89,1.67,10.11,0.7c3.8-1.15,7.11-3.86,8.9-7.75c6.67-14.54,12.8-29.52,18.22-44.52
					C3246.36,1278.83,3242.5,1270.62,3235.06,1267.93z"/>
				
					<linearGradient id="SVGID_00000150801266932683254110000009935426042118808737_" gradientUnits="userSpaceOnUse" x1="1015.0058" y1="12.5233" x2="299.2889" y2="1796.1356" gradientTransform="matrix(0.9574 -0.2888 0.2888 0.9574 1906.0146 448.3311)">
					<stop  offset="0" style="stop-color:#4042E2"/>
					<stop  offset="1" style="stop-color:#4F52FF"/>
				</linearGradient>
				<path style="fill:url(#SVGID_00000150801266932683254110000009935426042118808737_);" d="M2771.38,1632.2
					c-15.09,1.87-30.41,3.13-45.56,3.73c-7.9,0.29-14.07,6.98-13.76,14.9c0.31,7.91,6.98,14.07,14.89,13.75
					c15.95-0.63,32.08-1.96,47.95-3.93c0.82-0.1,1.62-0.27,2.39-0.5c6.57-1.98,10.95-8.46,10.07-15.49
					C2786.4,1636.8,2779.24,1631.22,2771.38,1632.2z"/>
				
					<linearGradient id="SVGID_00000176004294172550272520000003759188094850749319_" gradientUnits="userSpaceOnUse" x1="1124.5555" y1="56.4757" x2="408.8342" y2="1840.099" gradientTransform="matrix(0.9574 -0.2888 0.2888 0.9574 1906.0146 448.3311)">
					<stop  offset="0" style="stop-color:#4042E2"/>
					<stop  offset="1" style="stop-color:#4F52FF"/>
				</linearGradient>
				<path style="fill:url(#SVGID_00000176004294172550272520000003759188094850749319_);" d="M2887.94,1604.55
					c-14.2,5.06-28.84,9.58-43.67,13.52c-7.62,1.99-12.21,9.88-10.18,17.54c2.03,7.65,9.88,12.21,17.54,10.18
					c6.43-1.71,12.8-3.51,19.11-5.41c9.01-2.72,18.04-5.68,26.82-8.81c7.46-2.65,11.36-10.85,8.7-18.32
					C2903.6,1605.78,2895.41,1601.9,2887.94,1604.55z"/>
				
					<linearGradient id="SVGID_00000090273053481483151720000013833221473861937553_" gradientUnits="userSpaceOnUse" x1="1411.7931" y1="171.7088" x2="696.0543" y2="1955.3755" gradientTransform="matrix(0.9574 -0.2888 0.2888 0.9574 1906.0146 448.3311)">
					<stop  offset="0" style="stop-color:#4042E2"/>
					<stop  offset="1" style="stop-color:#4F52FF"/>
				</linearGradient>
				<path style="fill:url(#SVGID_00000090273053481483151720000013833221473861937553_);" d="M3249.13,914.24
					c-2.45-7.53-10.5-11.82-18.07-9.19c-7.53,2.45-11.65,10.54-9.2,18.07c1.24,3.82,2.45,7.67,3.62,11.53
					c3.22,10.68,6.16,21.61,8.73,32.48c1.82,7.7,9.54,12.48,17.25,10.65c0.29-0.07,0.58-0.14,0.86-0.23
					c7.2-2.17,11.55-9.6,9.8-17.02c-2.7-11.44-5.79-22.94-9.18-34.17C3251.7,922.3,3250.44,918.26,3249.13,914.24z"/>
			</g>
			
				<linearGradient id="SVGID_00000083778280442933965890000014401278271034191013_" gradientUnits="userSpaceOnUse" x1="759.3935" y1="-112.4045" x2="43.6501" y2="1671.2739" gradientTransform="matrix(0.9574 -0.2888 0.2888 0.9574 1906.0146 448.3311)">
				<stop  offset="0" style="stop-color:#4042E2"/>
				<stop  offset="1" style="stop-color:#4F52FF"/>
			</linearGradient>
			<path style="fill:url(#SVGID_00000083778280442933965890000014401278271034191013_);" d="M2485.08,1583.72
				c-6.99-2.32-14.08-4.83-21.05-7.46c-7.41-2.8-15.68,0.94-18.48,8.35c-2.8,7.41,0.94,15.68,8.35,18.48
				c7.34,2.77,14.79,5.41,22.16,7.85c2.91,0.96,5.9,0.94,8.63,0.12c4.32-1.3,7.95-4.62,9.48-9.22
				C2496.68,1594.32,2492.6,1586.21,2485.08,1583.72z"/>
			<g>
				
					<linearGradient id="SVGID_00000108298034723155822980000009743780571281164168_" gradientUnits="userSpaceOnUse" x1="1673.4626" y1="3686.2688" x2="1785.7827" y2="2729.8455" gradientTransform="matrix(0.981 0.1938 -0.1938 0.981 941.2735 188.9333)">
					<stop  offset="0" style="stop-color:#09005D"/>
					<stop  offset="1" style="stop-color:#1A0F91"/>
				</linearGradient>
				<path style="fill:url(#SVGID_00000108298034723155822980000009743780571281164168_);" d="M3125.47,948.12l-80.71-11.38
					c-15.44-34.38-36.06-65.48-60.63-92.66l-104.17,20.02l-79.61,86.32l70.28,152.17l-177.87-5.94l-103.97,77.41l14.11,136.61
					l-109.33-21.2l-37.22,36.91l-21,78.54c-0.74,2.76,0.35,5.69,2.73,7.29l81.1,54.7c2.37,1.6,5.5,1.52,7.78-0.2l65.16-49.05
					c35.6,13.54,73.62,21.49,112.78,22.99l40.78,70.57c1.43,2.48,4.28,3.77,7.08,3.22l96.03-18.67c2.81-0.55,4.96-2.81,5.36-5.64
					l11.38-80.71c35.76-16.06,68.02-37.68,95.96-63.56l78.79,21.07c2.76,0.74,5.69-0.36,7.28-2.73l54.7-81.1
					c1.6-2.37,1.52-5.5-0.2-7.78l-49.05-65.15c13.54-35.6,21.49-73.62,22.99-112.78l70.57-40.79c2.48-1.43,3.77-4.27,3.22-7.08
					l-18.67-96.03C3130.57,950.67,3128.3,948.52,3125.47,948.12z"/>
				
					<linearGradient id="SVGID_00000054227257076887434530000008371507478748626314_" gradientUnits="userSpaceOnUse" x1="2637.1694" y1="1140.9698" x2="2815.5034" y2="1140.9698">
					<stop  offset="0" style="stop-color:#4042E2"/>
					<stop  offset="1" style="stop-color:#4F52FF"/>
				</linearGradient>
				<path style="fill:url(#SVGID_00000054227257076887434530000008371507478748626314_);" d="M2750.88,1151.69
					c-34.51,16.23-75.14,3.86-95.3-27.32l-18.41,13.73c23.92,35.77,68.75,51.95,109.98,39.52c4.55-1.37,9.06-3.09,13.48-5.17
					c29.85-14.03,49.35-41.25,54.87-71.46l-23.28-0.82C2787.23,1122.01,2772.68,1141.45,2750.88,1151.69z"/>
				
					<linearGradient id="SVGID_00000025445129738790293290000010872813938798659735_" gradientUnits="userSpaceOnUse" x1="2709.0632" y1="1104.265" x2="2961.6875" y2="1104.265">
					<stop  offset="0" style="stop-color:#4042E2"/>
					<stop  offset="1" style="stop-color:#4F52FF"/>
				</linearGradient>
				<path style="fill:url(#SVGID_00000025445129738790293290000010872813938798659735_);" d="M2951.2,1011.34
					c-15.38-50.96-46.91-94.98-90.62-126.23l-7.84,8.5c42.24,29.82,72.69,72.07,87.48,121.07c2.27,7.52,4.17,15.2,5.69,23.01
					c8.66,44.56,3.79,88.66-11.74,128.06c-27.92,70.82-90.28,126.42-170.4,141.98c-16.13,3.14-32.57,4.56-48.86,4.23
					c-3.16-0.06-5.79,2.45-5.85,5.61c-0.01,0.62,0.07,1.22,0.24,1.78c0.7,2.31,2.83,4.02,5.37,4.07c0.97,0.02,1.94-0.5,2.91-0.5
					c0.5,0.01,1-0.53,1.5-0.53c0.17,0,0.35,0,0.53,0c12.88,0,25.81-0.51,38.6-2.57c2.59-0.42,5.18-0.61,7.76-1.11
					c8.19-1.59,16.24-3.45,24.12-5.83c53.13-16.02,98.75-49.48,130.19-96.11c36.11-53.54,49.22-117.91,36.89-181.31
					C2955.58,1027.26,2953.58,1019.24,2951.2,1011.34z"/>
			</g>
			<g>
				
					<linearGradient id="SVGID_00000145029545169012376700000017868092732692102019_" gradientUnits="userSpaceOnUse" x1="1330.7301" y1="3646.0291" x2="1443.0509" y2="2689.6001" gradientTransform="matrix(0.981 0.1938 -0.1938 0.981 941.2735 188.9333)">
					<stop  offset="0" style="stop-color:#09005D"/>
					<stop  offset="1" style="stop-color:#1A0F91"/>
				</linearGradient>
				<path style="fill:url(#SVGID_00000145029545169012376700000017868092732692102019_);" d="M2519.59,1248.58l-13.45-130.16
					l103.97-77.41l173.3,5.79c2.1,0.07,3.54-2.1,2.66-4l-68.36-148.02l79.61-86.32l104.17-20.02c-0.99-1.09-1.93-2.22-2.93-3.3
					l21.07-78.79c0.74-2.76-0.36-5.69-2.72-7.28l-81.11-54.7c-2.37-1.6-5.49-1.52-7.78,0.2l-65.16,49.05
					c-35.6-13.54-73.62-21.49-112.78-22.99l-40.79-70.57c-1.43-2.48-4.27-3.77-7.08-3.22l-96.03,18.67
					c-2.81,0.55-4.96,2.81-5.36,5.64l-11.38,80.71c-35.76,16.06-68.02,37.67-95.96,63.56l-78.79-21.07
					c-2.76-0.74-5.69,0.36-7.29,2.73l-54.7,81.1c-1.6,2.37-1.52,5.49,0.2,7.78l49.05,65.16c-13.54,35.6-21.49,73.62-22.98,112.78
					l-70.57,40.79c-2.47,1.43-3.77,4.27-3.22,7.08l18.67,96.03c0.55,2.81,2.81,4.96,5.64,5.36l80.71,11.38
					c16.06,35.76,37.68,68.02,63.56,95.96l-0.07,0.25l37.22-36.91l102.97,19.97C2517.06,1254.41,2519.92,1251.79,2519.59,1248.58z"
					/>
				
					<linearGradient id="SVGID_00000182522221676186311850000015270456991538341252_" gradientUnits="userSpaceOnUse" x1="2537.8301" y1="1005.948" x2="2734.4617" y2="1005.948">
					<stop  offset="0" style="stop-color:#4042E2"/>
					<stop  offset="1" style="stop-color:#4F52FF"/>
				</linearGradient>
				<path style="fill:url(#SVGID_00000182522221676186311850000015270456991538341252_);" d="M2572.92,1068.74
					c-1.82-2.82-3.54-5.73-5-8.86c-17.68-37.62-1.45-82.62,36.17-100.3c3.41-1.6,6.9-2.93,10.44-4c15.39-4.64,31.8-4.23,47.2,1.32
					c18.95,6.83,34.1,20.63,42.66,38.86c7.43,15.82,8.8,32.93,5.18,48.78l23.28,0.82c3.56-19.45,1.33-40.14-7.7-59.36
					c-11.17-23.77-30.93-41.77-55.64-50.68c-24.7-8.91-51.4-7.67-75.18,3.51c-49.07,23.06-70.24,81.74-47.18,130.82
					c2.14,4.54,4.65,8.78,7.36,12.83L2572.92,1068.74z"/>
				
					<linearGradient id="SVGID_00000126313745929088404790000006850779299516674990_" gradientUnits="userSpaceOnUse" x1="2395.3601" y1="986.7617" x2="2777.9316" y2="986.7617">
					<stop  offset="0" style="stop-color:#4042E2"/>
					<stop  offset="1" style="stop-color:#4F52FF"/>
				</linearGradient>
				<path style="fill:url(#SVGID_00000126313745929088404790000006850779299516674990_);" d="M2772.38,825.55
					c-53.54-36.12-117.94-49.22-181.34-36.9c-130.83,25.44-216.65,152.61-191.21,283.49c1.57,8.07,3.54,16.02,5.9,23.84
					c10.23,33.88,27.76,65.15,51.43,91.49c2.12,2.37,5.74,2.55,8.1,0.43c1.71-1.53,2.28-3.86,1.66-5.92
					c-0.23-0.78-0.64-1.53-1.22-2.18c-22.55-25.1-39.25-54.88-48.98-87.15c-2.25-7.45-4.13-15.03-5.62-22.72
					c-24.23-124.66,57.42-245.78,182.14-270.03c60.39-11.74,121.74,0.74,172.74,35.14c1.4,0.94,2.75,1.94,4.13,2.91l7.84-8.5
					C2776.09,828.16,2774.26,826.82,2772.38,825.55z"/>
			</g>
		</g>
		<g>
			<g>
				
					<ellipse transform="matrix(0.7071 -0.7071 0.7071 0.7071 -322.7415 860.9656)" class="st0" cx="877.91" cy="820.07" rx="282.01" ry="282.01"/>
				
					<linearGradient id="SVGID_00000166654817617315411450000014531984593514363048_" gradientUnits="userSpaceOnUse" x1="1054.0741" y1="134.639" x2="798.3771" y2="1129.4968">
					<stop  offset="0" style="stop-color:#FE7062"/>
					<stop  offset="1" style="stop-color:#FF928E"/>
				</linearGradient>
				<circle style="fill:url(#SVGID_00000166654817617315411450000014531984593514363048_);" cx="877.91" cy="820.07" r="272.63"/>
				<path class="st40" d="M1102.72,709.69c0.44,0,0.88-0.1,1.3-0.31c1.42-0.72,1.99-2.45,1.27-3.87
					c-43.59-86.36-130.71-140-227.38-140c-15.42,0-30.86,1.39-45.92,4.14c-1.57,0.28-2.6,1.78-2.32,3.35
					c0.28,1.57,1.78,2.61,3.35,2.31c14.71-2.68,29.81-4.04,44.89-4.04c94.48,0,179.63,52.43,222.24,136.83
					C1100.65,709.11,1101.66,709.69,1102.72,709.69z"/>
				
					<ellipse transform="matrix(0.7071 -0.7071 0.7071 0.7071 -328.6815 858.5052)" class="st0" cx="871.97" cy="826.01" rx="230.75" ry="230.75"/>
			</g>
			<g>
				
					<linearGradient id="SVGID_00000025434162100675875700000006507344121229650600_" gradientUnits="userSpaceOnUse" x1="1781.5773" y1="-339.1894" x2="1382.6433" y2="143.104">
					<stop  offset="0" style="stop-color:#E1473D"/>
					<stop  offset="1" style="stop-color:#E9605A"/>
				</linearGradient>
				<path style="fill:url(#SVGID_00000025434162100675875700000006507344121229650600_);" d="M886.25,870.87l-26.11-0.62
					c-7.28-0.17-13.3-6.4-13.68-13.72l-9.56-183.98c-0.2-3.79,1.17-6.92,3.77-9.48c2.6-2.56,6.2-3.39,9.97-3.13l44.97,3.13
					c3.69,0.26,7.2,1.48,9.73,4.36c2.53,2.88,3.85,6.33,3.66,10.03l-9.3,180.62C899.32,865.31,893.42,871.05,886.25,870.87z"/>
				
					<linearGradient id="SVGID_00000022548389278649014780000000029577229013814658_" gradientUnits="userSpaceOnUse" x1="1872.0684" y1="-264.3334" x2="1473.1349" y2="217.9594">
					<stop  offset="0" style="stop-color:#E1473D"/>
					<stop  offset="1" style="stop-color:#E9605A"/>
				</linearGradient>
				<path style="fill:url(#SVGID_00000022548389278649014780000000029577229013814658_);" d="M845.95,915.81
					c6.52-6.23,15.7-9.24,27.49-9.05c12.16,0.19,21.38,3.4,27.69,9.61c6.29,6.19,9.43,15.23,9.43,27.14
					c0,11.48-3.21,20.37-9.64,26.67c-6.45,6.32-15.6,9.48-27.48,9.48c-11.65,0-20.79-3.27-27.38-9.81
					c-6.61-6.57-9.92-15.55-9.92-26.93C836.14,931.1,839.41,922.06,845.95,915.81z"/>
			</g>
		</g>
		<g>
			<g>
				
					<linearGradient id="SVGID_00000105417871774846318350000010249436781162356627_" gradientUnits="userSpaceOnUse" x1="1721.9436" y1="715.0142" x2="1969.3864" y2="2115.2444">
					<stop  offset="0" style="stop-color:#09005D"/>
					<stop  offset="1" style="stop-color:#1A0F91"/>
				</linearGradient>
				<path style="fill:url(#SVGID_00000105417871774846318350000010249436781162356627_);" d="M1907.35,697.22L1179.37,1920.4
					c-15.98,26.85,4.91,59.71,38.14,59.98l1443.08,11.88c33.35,0.27,54.87-32.45,39.16-59.57l-715.1-1235.06
					C1968.21,669.24,1924.15,669,1907.35,697.22z"/>
				
					<linearGradient id="SVGID_00000050620989136585864740000012584425903632086667_" gradientUnits="userSpaceOnUse" x1="2374.0068" y1="899.4832" x2="1093.5807" y2="3865.0027">
					<stop  offset="0" style="stop-color:#FE7062"/>
					<stop  offset="1" style="stop-color:#FF928E"/>
				</linearGradient>
				<path style="fill:url(#SVGID_00000050620989136585864740000012584425903632086667_);" d="M1911.03,770.29l-661.15,1110.89
					c-14.52,24.39,4.46,54.23,34.64,54.48l1310.6,10.79c30.29,0.25,49.83-29.47,35.57-54.1L1981.24,770.67
					C1966.3,744.88,1926.28,744.67,1911.03,770.29z"/>
			</g>
			<g>
				<g>
					
						<linearGradient id="SVGID_00000158748975732849788700000011492906932875549321_" gradientUnits="userSpaceOnUse" x1="1577.9203" y1="1797.1932" x2="2231.821" y2="207.1834">
						<stop  offset="0" style="stop-color:#09005D"/>
						<stop  offset="1" style="stop-color:#1A0F91"/>
					</linearGradient>
					<path style="fill:url(#SVGID_00000158748975732849788700000011492906932875549321_);" d="M1797.38,1531.51l-32.3,0.42v57.68
						l-55.74,0.93v-57.88l-116.43,1.51v-41.38l119.58-181.54l52.59,0.06v174.94l32.3-0.33V1531.51z M1709.34,1486.8v-47.38
						c0-7.9,0.3-19.36,0.93-34.39c0.62-15.03,1.11-23.75,1.48-26.18l-1.48,0c-4.57,10.46-10.07,20.68-16.5,30.65l-49.9,77.95
						L1709.34,1486.8z"/>
					
						<linearGradient id="SVGID_00000012432408684881826310000007179564800058710932_" gradientUnits="userSpaceOnUse" x1="1746.4689" y1="1866.5107" x2="2400.3699" y2="276.5006">
						<stop  offset="0" style="stop-color:#09005D"/>
						<stop  offset="1" style="stop-color:#1A0F91"/>
					</linearGradient>
					<path style="fill:url(#SVGID_00000012432408684881826310000007179564800058710932_);" d="M2010.41,1448.54
						c0,47.84-7.46,83.36-22.39,106.57c-14.97,23.26-38.07,35.17-69.38,35.7c-30.47,0.52-53.53-11.07-69.1-34.8
						c-15.6-23.78-23.41-59.13-23.41-106.03c0-48.92,7.6-85,22.78-108.2c15.15-23.15,38.42-34.69,69.74-34.65
						c30.35,0.04,53.22,12.09,68.67,36.12C2002.72,1367.24,2010.41,1402.32,2010.41,1448.54z M1881.94,1449.54
						c0,33.88,2.81,58.13,8.42,72.73c5.61,14.59,15.03,21.79,28.27,21.6c12.97-0.18,22.33-7.71,28.08-22.59
						c5.75-14.86,8.62-38.97,8.62-72.32c0-33.72-2.9-57.94-8.71-72.65c-5.81-14.72-15.14-22.08-27.99-22.06
						c-13.12,0.02-22.51,7.43-28.18,22.23C1884.78,1391.31,1881.94,1415.66,1881.94,1449.54z"/>
					
						<linearGradient id="SVGID_00000173145909001727817120000015628666483978044035_" gradientUnits="userSpaceOnUse" x1="1952.6157" y1="1951.2892" x2="2606.5171" y2="361.2779">
						<stop  offset="0" style="stop-color:#09005D"/>
						<stop  offset="1" style="stop-color:#1A0F91"/>
					</linearGradient>
					<path style="fill:url(#SVGID_00000173145909001727817120000015628666483978044035_);" d="M2231.93,1525.86l-30.53,0.4v56.07
						l-52.67,0.88v-56.27l-110,1.43v-40.21l112.97-176.44l49.7,0.05v170.07l30.53-0.31V1525.86z M2148.73,1482.37v-46.06
						c0-7.67,0.29-18.82,0.87-33.43c0.58-14.61,1.05-23.09,1.4-25.44l-1.4,0c-4.32,10.17-9.51,20.1-15.59,29.79l-47.14,75.76
						L2148.73,1482.37z"/>
				</g>
				<g>
					
						<linearGradient id="SVGID_00000082345365779731655860000000374656050445791415_" gradientUnits="userSpaceOnUse" x1="1607.5643" y1="1809.3845" x2="2261.4656" y2="219.3735">
						<stop  offset="0" style="stop-color:#09005D"/>
						<stop  offset="1" style="stop-color:#1A0F91"/>
					</linearGradient>
					<path style="fill:url(#SVGID_00000082345365779731655860000000374656050445791415_);" d="M1671.63,1833.59l-85.99,2.76v-153.62
						l85.99-1.92v26.54l-54.22,1.3v33.66l50.46-1.32v26.55l-50.46,1.41v39.54l54.22-1.65V1833.59z"/>
					
						<linearGradient id="SVGID_00000051345963377660913860000008373860000914952892_" gradientUnits="userSpaceOnUse" x1="1723.9927" y1="1857.2662" x2="2377.8953" y2="267.2524">
						<stop  offset="0" style="stop-color:#09005D"/>
						<stop  offset="1" style="stop-color:#1A0F91"/>
					</linearGradient>
					<path style="fill:url(#SVGID_00000051345963377660913860000008373860000914952892_);" d="M1739,1773.05v58.38l-31.28,1V1680
						l42.95-0.96c19.95-0.45,34.68,2.98,44.22,10.26c9.53,7.28,14.28,18.54,14.28,33.8c0,8.91-2.36,16.89-7.09,23.96
						c-4.73,7.07-11.43,12.7-20.11,16.88c22,33.45,36.3,55,42.95,64.73l-34.34,1.1l-34.99-57.19L1739,1773.05z M1739,1746.83
						l10.06-0.27c9.85-0.26,17.11-2.15,21.79-5.67c4.68-3.52,7.02-8.9,7.02-16.17c0-7.2-2.39-12.26-7.17-15.19
						c-4.78-2.93-12.19-4.28-22.25-4.04l-9.46,0.23V1746.83z"/>
					
						<linearGradient id="SVGID_00000133498764828165416640000009831308648055200683_" gradientUnits="userSpaceOnUse" x1="1842.0299" y1="1905.8097" x2="2495.9326" y2="315.7953">
						<stop  offset="0" style="stop-color:#09005D"/>
						<stop  offset="1" style="stop-color:#1A0F91"/>
					</linearGradient>
					<path style="fill:url(#SVGID_00000133498764828165416640000009831308648055200683_);" d="M1879.05,1769.08v57.86l-30.73,0.98
						v-151.07l42.19-0.94c19.6-0.44,34.06,2.96,43.43,10.18c9.36,7.21,14.03,18.38,14.03,33.51c0,8.83-2.32,16.74-6.96,23.75
						c-4.65,7.01-11.23,12.58-19.75,16.73c21.61,33.16,35.66,54.52,42.19,64.16l-33.73,1.08l-34.37-56.69L1879.05,1769.08z
						 M1879.05,1743.1l9.88-0.26c9.67-0.26,16.81-2.13,21.41-5.61c4.6-3.48,6.89-8.82,6.89-16.03c0-7.13-2.35-12.15-7.04-15.05
						c-4.7-2.91-11.98-4.24-21.85-4.01l-9.29,0.22V1743.1z"/>
					
						<linearGradient id="SVGID_00000168096397218925948610000008433211257205328278_" gradientUnits="userSpaceOnUse" x1="1961.7355" y1="1955.0394" x2="2615.6248" y2="365.0576">
						<stop  offset="0" style="stop-color:#09005D"/>
						<stop  offset="1" style="stop-color:#1A0F91"/>
					</linearGradient>
					<path style="fill:url(#SVGID_00000168096397218925948610000008433211257205328278_);" d="M2114.81,1744.94
						c0,24.58-5.76,43.64-17.29,57.21c-11.55,13.59-28.13,20.73-49.78,21.43c-21.71,0.7-38.42-5.41-50.1-18.34
						c-11.7-12.95-17.55-31.9-17.55-56.83c0-24.93,5.87-44.12,17.6-57.54c11.71-13.4,28.47-20.33,50.25-20.82
						c21.71-0.48,38.28,5.73,49.73,18.62C2109.09,1701.54,2114.81,1720.29,2114.81,1744.94z M2011.75,1747.74
						c0,16.7,3.02,29.19,9.04,37.46c6.02,8.27,15,12.21,26.95,11.85c23.9-0.73,35.82-17.81,35.82-51.26
						c0-33.52-11.86-49.99-35.63-49.43c-11.94,0.29-20.97,4.74-27.05,13.37C2014.8,1718.37,2011.75,1731.04,2011.75,1747.74z"/>
					
						<linearGradient id="SVGID_00000134231762704623297140000012145175901049639815_" gradientUnits="userSpaceOnUse" x1="2094.2427" y1="2009.5343" x2="2748.1462" y2="419.5176">
						<stop  offset="0" style="stop-color:#09005D"/>
						<stop  offset="1" style="stop-color:#1A0F91"/>
					</linearGradient>
					<path style="fill:url(#SVGID_00000134231762704623297140000012145175901049639815_);" d="M2178.26,1760.61v56.74l-29.55,0.95
						v-148.16l40.58-0.91c18.85-0.42,32.77,2.92,41.78,10c9,7.08,13.5,18.03,13.5,32.87c0,8.66-2.23,16.42-6.7,23.29
						c-4.47,6.87-10.8,12.34-19,16.4c20.79,32.53,34.31,53.5,40.59,62.96l-32.45,1.04l-33.07-55.63L2178.26,1760.61z
						 M2178.26,1735.12l9.51-0.25c9.31-0.25,16.17-2.08,20.59-5.5c4.42-3.41,6.63-8.65,6.63-15.72c0-7-2.26-11.92-6.78-14.77
						c-4.52-2.85-11.52-4.17-21.02-3.94l-8.94,0.22V1735.12z"/>
				</g>
			</g>
		</g>
		<g>
			
				<linearGradient id="SVGID_00000064346338902578416590000008344661770374150075_" gradientUnits="userSpaceOnUse" x1="3666.9775" y1="3057.2366" x2="2967.3955" y2="3818.186" gradientTransform="matrix(1 0 0 1 -2400.0403 0)">
				<stop  offset="0" style="stop-color:#09005D"/>
				<stop  offset="1" style="stop-color:#1A0F91"/>
			</linearGradient>
			<path style="fill:url(#SVGID_00000064346338902578416590000008344661770374150075_);" d="M1045.8,3113.92
				c0,0-7.24,41.02-10.8,81.62c-1.39,15.87,10.84,29.65,26.76,30.31c54.07,2.25,169.72,6.63,211.22,4.78
				c6.24-0.28,10.32-6.67,8.01-12.47l0,0c-1.93-4.86-5.67-8.79-10.42-10.98l-191.04-87.8L1045.8,3113.92z"/>
			
				<linearGradient id="SVGID_00000118379982595044777000000007527573576707679384_" gradientUnits="userSpaceOnUse" x1="3439.9038" y1="3113.7534" x2="3502.0439" y2="3113.7534" gradientTransform="matrix(1 0 0 1 -2400.0403 0)">
				<stop  offset="0" style="stop-color:#FEBBBA"/>
				<stop  offset="1" style="stop-color:#FF928E"/>
			</linearGradient>
			<path style="fill:url(#SVGID_00000118379982595044777000000007527573576707679384_);" d="M1039.86,3089.82l5.82,49.06
				c0,0,33.47,15.58,56.32-1.96l-13.86-54.67L1039.86,3089.82z"/>
			
				<linearGradient id="SVGID_00000147218996476419568880000004077166252000690562_" gradientUnits="userSpaceOnUse" x1="-239.9671" y1="6899.1816" x2="429.8628" y2="6114.1128" gradientTransform="matrix(1 0 0 1 -2400.0403 0)">
				<stop  offset="0" style="stop-color:#020039"/>
				<stop  offset="1" style="stop-color:#090056"/>
			</linearGradient>
			<path style="fill:url(#SVGID_00000147218996476419568880000004077166252000690562_);" d="M1044.24,2167.48
				c-2.51,12.81-13.5,639.33,53.47,920.1c1.09,4.58-1.23,9.3-5.59,11.08c-10.27,4.2-30.41,10.27-54.54,11.08
				c-7.47,0.25-14.17-4.61-16.28-11.78c-19.14-65.14-110.88-391.52-122.84-703.3c-13.37-348.38,0-11.86,0-11.86l7.84-215.35
				L1044.24,2167.48z"/>
			
				<linearGradient id="SVGID_00000055685338387245351530000005434670835230303137_" gradientUnits="userSpaceOnUse" x1="3510.0378" y1="2912.9531" x2="2810.4553" y2="3673.9036" gradientTransform="matrix(1 0 0 1 -2400.0403 0)">
				<stop  offset="0" style="stop-color:#09005D"/>
				<stop  offset="1" style="stop-color:#1A0F91"/>
			</linearGradient>
			<path style="fill:url(#SVGID_00000055685338387245351530000005434670835230303137_);" d="M826.04,3135.32
				c0,0-11.53,20.71-22.7,75.73c-2.02,9.94,4.93,19.45,15.02,20.44c17.85,1.76,45.34,4.01,67.35,3.86
				c10.15-0.07,18.07-8.91,16.85-18.98c-2.44-20.08-10.04-53.03-33.51-78.71L826.04,3135.32z"/>
			
				<linearGradient id="SVGID_00000172402390795356324620000004255464353403955079_" gradientUnits="userSpaceOnUse" x1="3215.9507" y1="3110.5667" x2="3269.603" y2="3110.5667" gradientTransform="matrix(1 0 0 1 -2400.0403 0)">
				<stop  offset="0" style="stop-color:#FEBBBA"/>
				<stop  offset="1" style="stop-color:#FF928E"/>
			</linearGradient>
			<path style="fill:url(#SVGID_00000172402390795356324620000004255464353403955079_);" d="M815.91,3072.22l13.6,74.19
				c0,0,13.45,10,40.05,2.75l-6.49-79.83L815.91,3072.22z"/>
			
				<linearGradient id="SVGID_00000094585639787029937340000008628228497426571417_" gradientUnits="userSpaceOnUse" x1="-333.8759" y1="6819.0605" x2="335.952" y2="6033.9941" gradientTransform="matrix(1 0 0 1 -2400.0403 0)">
				<stop  offset="0" style="stop-color:#020039"/>
				<stop  offset="1" style="stop-color:#090056"/>
			</linearGradient>
			<path style="fill:url(#SVGID_00000094585639787029937340000008628228497426571417_);" d="M779.17,2186.71
				c-54.77,330.56,11.88,817,34.36,912.21c1.38,5.83,6.08,10.29,11.99,11.27c10.03,1.66,26.55,3.02,42.84-1.71
				c5.61-1.63,9.55-6.69,9.78-12.53c3.02-76.97-2.41-549.52,48.62-736.27c2.59-9.46,8.37-17.72,16.36-23.4l99.06-70.42l7.59-113.83
				L779.17,2186.71z"/>
			<g>
				<g>
					<g>
						<g>
							<g>
								
									<linearGradient id="SVGID_00000088819768408423211050000007598134900014215558_" gradientUnits="userSpaceOnUse" x1="1262.5452" y1="1460.6917" x2="1020.8981" y2="2141.386">
									<stop  offset="0" style="stop-color:#4F52FF"/>
									<stop  offset="1" style="stop-color:#4042E2"/>
								</linearGradient>
								<path style="fill:url(#SVGID_00000088819768408423211050000007598134900014215558_);" d="M1266.82,1715.51
									c-8.33,59.22-17.12,72.82-23.94,73.18c-21.74,1.12-17.36-132.39-96.86-199.92c-50.22-42.66-118.81-46.17-172.62-41.19
									c25.11,90.05,50.22,180.1,75.33,270.15c10.96,26.9,58.77,135.72,166.93,168.75c22.02,6.72,54.8,16.73,85.28,3.63
									c60.17-25.86,88.39-131.84,61.48-264.55C1349.77,1720.85,1332.26,1715.84,1266.82,1715.51z"/>
								
									<linearGradient id="SVGID_00000173125023364038501510000007700204349267437244_" gradientUnits="userSpaceOnUse" x1="-9542.8457" y1="3099.4153" x2="-10239.7578" y2="3991.0535" gradientTransform="matrix(0.3133 -0.9497 0.9497 0.3133 1084.4857 -8779.0674)">
									<stop  offset="0" style="stop-color:#FEBBBA"/>
									<stop  offset="1" style="stop-color:#FF928E"/>
								</linearGradient>
								<path style="fill:url(#SVGID_00000173125023364038501510000007700204349267437244_);" d="M1247.65,1484.58l9.95,56.28
									c15.99,68.83,17.51,126.21,9.21,174.65c13.74,0.57,28.16,1.54,43.19,3.02c18.53,1.83,36.03,4.24,52.41,7.02
									c-8.65-70-55.23-186.25-55.23-186.25C1279.09,1498.74,1275.75,1525.14,1247.65,1484.58z"/>
							</g>
							
								<linearGradient id="SVGID_00000083054040533857992430000018227295648628991645_" gradientUnits="userSpaceOnUse" x1="-9447.9707" y1="3173.5681" x2="-10144.8818" y2="4065.2046" gradientTransform="matrix(0.3133 -0.9497 0.9497 0.3133 1084.4857 -8779.0674)">
								<stop  offset="0" style="stop-color:#FEBBBA"/>
								<stop  offset="1" style="stop-color:#FF928E"/>
							</linearGradient>
							<path style="fill:url(#SVGID_00000083054040533857992430000018227295648628991645_);" d="M1361.45,1366
								c-11.27-0.3-22.07,4.55-29.35,13.17l-71,84.13c0,0-12.92-2.64-14.13-27.39c-1.21-24.75-27.5-27.73-27.5-27.73
								s3.79,34.51,11.01,85.59c4.13,29.21,21.4,50.53,35.43,63.45l41.07-14.14c37.68-53.86,61.07-113.22,74.07-176.58L1361.45,1366
								z"/>
						</g>
						
							<linearGradient id="SVGID_00000005974253624557766780000007604080015407747968_" gradientUnits="userSpaceOnUse" x1="1055.7777" y1="1387.2891" x2="814.1297" y2="2067.9861">
							<stop  offset="0" style="stop-color:#4F52FF"/>
							<stop  offset="1" style="stop-color:#4042E2"/>
						</linearGradient>
						<path style="fill:url(#SVGID_00000005974253624557766780000007604080015407747968_);" d="M692.27,1594.89
							c4.73-1.24,37.07-34.65,41.93-35.58c79.71-15.19,278.66-68.77,411.82,29.46c0.33,2.84,0.54,5.1,0.67,6.98
							c1.29,1.75,3.06,4.69,5.49,9.4c12.57,24.37,27.66,48.05,44.94,70.18c-3.8,3.77-6.96,8.2-9.26,13.13
							c-32,68.54-153.29,342.26-131.97,509.65c1.1,8.65-4.78,16.61-13.41,17.8c-47.08,6.51-187.3,22.39-259.74-7.52
							c-4.22-1.74-6.91-5.88-6.85-10.44c0.48-33.58-0.94-179.34-54.38-355.04c-1.99-6.55-3.62-13.2-4.91-19.92
							c-0.66,1.35-1.28,2.69-1.91,4.03L692.27,1594.89z"/>
						
							<linearGradient id="SVGID_00000176022426345323667220000004751270891838084788_" gradientUnits="userSpaceOnUse" x1="774.0545" y1="1287.2773" x2="532.4072" y2="1967.9725">
							<stop  offset="0" style="stop-color:#4F52FF"/>
							<stop  offset="1" style="stop-color:#4042E2"/>
						</linearGradient>
						<path style="fill:url(#SVGID_00000176022426345323667220000004751270891838084788_);" d="M813.91,1544.11
							c-148.64,10.87-179.71,95.81-282.43,43.88l18.19,159.07c38.09,42.07,95.6,70.72,168.07,81.46L813.91,1544.11z"/>
					</g>
					<g>
						
							<linearGradient id="SVGID_00000092448217118167406490000010839974279841640334_" gradientUnits="userSpaceOnUse" x1="-5209.3442" y1="2191.1992" x2="-5329.2095" y2="2709.1877" gradientTransform="matrix(0.9659 0.2591 -0.2591 0.9659 6608.8066 617.2191)">
							<stop  offset="0" style="stop-color:#FEBBBA"/>
							<stop  offset="1" style="stop-color:#FF928E"/>
						</linearGradient>
						<path style="fill:url(#SVGID_00000092448217118167406490000010839974279841640334_);" d="M915.47,1400.25
							c-25.47,50.77-36.1,102.48-39.29,150.63c5.48,2.04,78.58,52.75,127.51,3.67c-10.46-33.69-8.73-84.41-6.07-136.43
							L915.47,1400.25z"/>
						<g>
							
								<linearGradient id="SVGID_00000008121236981290917690000006025637355779181986_" gradientUnits="userSpaceOnUse" x1="-1288.6982" y1="1937.7948" x2="-1726.6935" y2="2150.6523" gradientTransform="matrix(-0.9451 0.3269 0.3269 0.9451 -1181.1458 -92.6297)">
								<stop  offset="0" style="stop-color:#FEBBBA"/>
								<stop  offset="1" style="stop-color:#FF928E"/>
							</linearGradient>
							<path style="fill:url(#SVGID_00000008121236981290917690000006025637355779181986_);" d="M1048.09,1266.77
								c1.4,2.27,37.93,174.55,37.93,174.55l-98.82,18.77l-58.89-158.15C928.32,1301.95,1024.65,1228.84,1048.09,1266.77z"/>
							
								<linearGradient id="SVGID_00000135658805089098288420000016148141790490650270_" gradientUnits="userSpaceOnUse" x1="-5232.0562" y1="-4192.7793" x2="-4990.6963" y2="-4192.7793" gradientTransform="matrix(0.8506 -0.5257 0.5257 0.8506 7571.9932 2240.2207)">
								<stop  offset="0" style="stop-color:#09005D"/>
								<stop  offset="1" style="stop-color:#1A0F91"/>
							</linearGradient>
							<path style="fill:url(#SVGID_00000135658805089098288420000016148141790490650270_);" d="M966.04,1316.01
								c-2.64,3.62-3.47,8.23-2.24,12.54l24.12,84.44c0.37,1.28,0.89,2.49,1.59,3.62c3.9,6.23,17.9,25.06,36.77,9.6
								c16.09-13.18,31.05-25.07,44.47-28.03c7.83-1.73,15.53,3.39,17.16,11.25c3.37,16.18,9.5,48.96,10.86,78.85
								c0.34,7.49-5.21,13.95-12.65,14.87c-19.64,2.43-58.13,6.02-90.35,1.97c-5.29-0.66-9.77-4.17-11.69-9.15
								c-8.46-21.9-32.4-83.18-41.83-99.44c-8.75-15.1-32.01-16.53-42.71-16.34c-4.06,0.07-7.94-1.53-10.76-4.45
								c-8.45-8.77-21.99-28.61,0.97-49.89c5.71-5.29,5.94-14.32,0.77-20.13c-9.27-10.42-17.75-27.59-0.08-46.97
								c17.89-19.62,39.47-16.02,53.32-10.43c6.13,2.48,13.46,0.88,17.47-4.37c1.79-2.34,4.52-4,8.72-3.74
								c7.92,0.49,14.69-5.05,15.23-12.97c0.93-13.57,7.33-29.8,30.94-35.6c43.32-10.63,67.31,32.06,68.06,62.86
								c0.75,30.8-46.87,39.66-74.32,35.9C989.73,1287.62,973.33,1306.04,966.04,1316.01z"/>
							
								<linearGradient id="SVGID_00000103951878641773163180000002075101762349826205_" gradientUnits="userSpaceOnUse" x1="-1265.0542" y1="1986.4379" x2="-1703.0518" y2="2199.2966" gradientTransform="matrix(-0.9451 0.3269 0.3269 0.9451 -1181.1458 -92.6297)">
								<stop  offset="0" style="stop-color:#FEBBBA"/>
								<stop  offset="1" style="stop-color:#FF928E"/>
							</linearGradient>
							<path style="fill:url(#SVGID_00000103951878641773163180000002075101762349826205_);" d="M957.08,1428.55
								c0,0-9.19-54.54-31.16-58.5c-21.97-3.96-44.62,12.91-24.45,44.11C926.56,1452.98,957.08,1428.55,957.08,1428.55z"/>
						</g>
					</g>
					<g>
						
							<linearGradient id="SVGID_00000068666195472718449630000002393094652156750977_" gradientUnits="userSpaceOnUse" x1="-1515.6021" y1="2285.1416" x2="-1128.2607" y2="2553.7227" gradientTransform="matrix(-0.9999 -0.0105 -0.0105 0.9999 -543.5361 -1035.2291)">
							<stop  offset="0" style="stop-color:#FEBBBA"/>
							<stop  offset="1" style="stop-color:#FF928E"/>
						</linearGradient>
						<path style="fill:url(#SVGID_00000068666195472718449630000002393094652156750977_);" d="M920.84,1232.33
							c3.83-0.16,7.99,0.21,12.58,1.18c10.45,2.21,24.36,7.58,20.74,17.63c-5.44,15.09-33.68,0.99-48.71,25.32
							c-13.25,21.43-2.4,44.71-6.46,67.81c-1.97,11.24-9.19,27.92-19.23,34.49c-4.49,2.94-39.94,8.55-41.88,2.26
							c0,0-9.85-31.97-9.85-31.98c-8.86-28.76,25.19-76.69,42.75-96.07C884.34,1237.98,902.73,1233.07,920.84,1232.33z"/>
						<g>
							
								<linearGradient id="SVGID_00000134962570266867217370000013632622180175089029_" gradientUnits="userSpaceOnUse" x1="-1507.7194" y1="2277.3638" x2="-1104.7754" y2="2556.7634" gradientTransform="matrix(-0.9999 -0.0105 -0.0105 0.9999 -543.5361 -1035.2291)">
								<stop  offset="0" style="stop-color:#FEBBBA"/>
								<stop  offset="1" style="stop-color:#FF928E"/>
							</linearGradient>
							<path style="fill:url(#SVGID_00000134962570266867217370000013632622180175089029_);" d="M887.23,1347.77L853.32,1376
								c-65.03,27.66-112.27,60.25-146.51,95.51c-12.4-23.32-32.47-50.28-64.46-71.31c65.55-32.29,114.34-45.7,114.34-45.7
								C888.98,1301.29,887.23,1347.77,887.23,1347.77z"/>
							
								<linearGradient id="SVGID_00000082367583498706953390000016963905343879379614_" gradientUnits="userSpaceOnUse" x1="679.1714" y1="1253.5939" x2="437.524" y2="1934.2892">
								<stop  offset="0" style="stop-color:#4F52FF"/>
								<stop  offset="1" style="stop-color:#4042E2"/>
							</linearGradient>
							<path style="fill:url(#SVGID_00000082367583498706953390000016963905343879379614_);" d="M706.81,1471.51
								c-106.91,110.09-75.67,54.15-76.52,147.99c-0.32,34.99-30.68,168.58-30.68,168.58c-326.95-141.24-54.1-334.04,42.74-387.88
								C674.35,1421.23,694.42,1448.19,706.81,1471.51z"/>
						</g>
					</g>
				</g>
			</g>
		</g>
	</g>
</g>
</svg>
